<mxfile host="app.diagrams.net" modified="2023-09-29T20:57:07.913Z" agent="Mozilla/5.0 (Windows NT 10.0; Win64; x64) AppleWebKit/537.36 (KHTML, like Gecko) Chrome/117.0.0.0 Safari/537.36 Edg/117.0.2045.43" version="21.7.5" etag="9ZJRDl6spWSmZivXSu5_" type="github">
  <diagram name="PÃ¡gina-1" id="MbroCjr10evezJqK83CW">
    <mxGraphModel>
      <root>
        <mxCell id="0" />
        <mxCell id="1" parent="0" />
      </root>
    </mxGraphModel>
  </diagram>
</mxfile>
